<?xml version="1.0" standalone="no"?>
<!DOCTYPE svg PUBLIC "-//W3C//DTD SVG 20010904//EN"
 "http://www.w3.org/TR/2001/REC-SVG-20010904/DTD/svg10.dtd">
<svg version="1.0" xmlns="http://www.w3.org/2000/svg"
 width="174.000000pt" height="174.000000pt" viewBox="0 0 174.000000 174.000000"
 preserveAspectRatio="xMidYMid meet">
<metadata>
Created by potrace 1.11, written by Peter Selinger 2001-2013
</metadata>
<g transform="translate(0.000000,174.000000) scale(0.100000,-0.100000)"
fill="#000000" stroke="none">
<path d="M995 1394 c-16 -8 -79 -42 -140 -75 l-110 -60 -355 -410 c-195 -225
-364 -425 -375 -444 -19 -33 -19 -35 -3 -52 17 -16 53 -10 690 121 535 110
680 143 708 162 19 13 100 76 180 141 116 95 145 123 145 143 0 21 -19 36
-138 105 -75 44 -157 91 -181 104 l-44 24 -87 -41 c-48 -23 -89 -42 -91 -42
-2 0 -4 42 -4 93 l0 94 -79 76 c-43 42 -80 77 -82 77 -2 0 -17 -7 -34 -16z
m97 -81 c38 -37 68 -72 68 -78 0 -6 -252 -199 -560 -430 -307 -230 -558 -421
-556 -422 2 -2 250 139 552 313 507 291 706 401 760 418 16 5 64 -18 188 -90
91 -53 166 -100 166 -105 0 -7 -250 -214 -320 -266 -26 -19 -1340 -287 -1351
-276 -7 7 113 152 349 424 198 228 369 423 381 433 18 16 234 141 251 145 2 1
35 -29 72 -66z"/>
</g>
</svg>
