<?xml version="1.0" encoding="utf-8"?>
<!-- Generator: Adobe Illustrator 23.0.3, SVG Export Plug-In . SVG Version: 6.00 Build 0)  -->
<svg version="1.1" xmlns="http://www.w3.org/2000/svg" xmlns:xlink="http://www.w3.org/1999/xlink" x="0px" y="0px"
	 viewBox="0 0 226.8 226.8" style="enable-background:new 0 0 226.8 226.8;" xml:space="preserve">
<style type="text/css">
	.st0{fill:#48B0E4;}
	.st1{fill:none;stroke:#48B0E4;stroke-width:2.8346;stroke-miterlimit:10;}
</style>
<g id="Layer_1">
	<g>
		<path class="st0" d="M27.6,164.7l115.8-86.9c0.5-0.3,1.1-0.1,1.1,0.5l0.4,19L27.6,164.7"/>
		<path class="st1" d="M197.8,106.3l-32.5-18.8c-0.8-0.5-1.8-0.5-2.6-0.1l-18.4,8.7l0.1-19.5c0-0.8-0.3-1.5-0.8-2l-12.4-12.4
			c-0.9-0.9-2.3-1.1-3.4-0.5l-23.7,12.9c-0.9,0.5-1.7,1.1-2.4,1.9l-72.9,84.2c-1.8,2,0.1,5.2,2.7,4.6l131.5-27.2
			c1.3-0.3,2.6-0.9,3.6-1.7l31.5-25.4C199.7,109.7,199.5,107.3,197.8,106.3z"/>
	</g>
</g>
<g id="Layer_2">
</g>
</svg>
