<svg id="Layer_1" data-name="Layer 1" xmlns="http://www.w3.org/2000/svg" viewBox="0 0 173.91 106.81"><defs><style>.cls-1{fill:#48b0e4;}.cls-2{fill:none;stroke:#48b0e4;stroke-miterlimit:10;stroke-width:2.83px;}</style></defs><title>logo_deepSkyBlue</title><path class="cls-1" d="M324.92,366l115.84-86.93a.68.68,0,0,1,1.11.49l.38,19L324.92,366" transform="translate(-324.05 -261.32)"/><path class="cls-2" d="M495.12,307.63l-32.48-18.76a2.84,2.84,0,0,0-2.63-.1l-18.37,8.72.08-19.51a2.79,2.79,0,0,0-.83-2L428.5,263.57a2.83,2.83,0,0,0-3.36-.48L401.46,276a8.56,8.56,0,0,0-2.37,1.9L326.17,362a2.83,2.83,0,0,0,2.72,4.63L460.4,339.42a8.59,8.59,0,0,0,3.62-1.71l31.47-25.42A2.83,2.83,0,0,0,495.12,307.63Z" transform="translate(-324.05 -261.32)"/></svg>